<mxfile host="Electron" modified="2024-08-26T20:09:23.274Z" agent="Mozilla/5.0 (Windows NT 10.0; Win64; x64) AppleWebKit/537.36 (KHTML, like Gecko) draw.io/22.1.16 Chrome/120.0.6099.109 Electron/28.1.0 Safari/537.36" etag="yelxR5t0pxL0lkWCi52g" version="22.1.16" type="device">
  <diagram name="Page-1" id="wBG6MBmfAQEyEWKxdH8R">
    <mxGraphModel dx="757" dy="648" grid="1" gridSize="10" guides="1" tooltips="1" connect="1" arrows="1" fold="1" page="1" pageScale="1" pageWidth="800" pageHeight="360" math="0" shadow="0">
      <root>
        <mxCell id="0" />
        <mxCell id="1" parent="0" />
        <mxCell id="Y-KBNdAY24uzlhyVxi8V-2" value="" style="ellipse;whiteSpace=wrap;html=1;aspect=fixed;fillColor=none;fontColor=#ffffff;strokeColor=default;" parent="1" vertex="1">
          <mxGeometry x="250" y="20" width="310" height="310" as="geometry" />
        </mxCell>
        <mxCell id="Y-KBNdAY24uzlhyVxi8V-4" value="" style="ellipse;whiteSpace=wrap;html=1;aspect=fixed;fillColor=none;strokeColor=#6c8ebf;" parent="1" vertex="1">
          <mxGeometry x="425" y="120" width="110" height="110" as="geometry" />
        </mxCell>
        <mxCell id="Y-KBNdAY24uzlhyVxi8V-5" value="" style="ellipse;whiteSpace=wrap;html=1;aspect=fixed;fillColor=none;strokeColor=#9673a6;" parent="1" vertex="1">
          <mxGeometry x="436" y="142" width="40" height="40" as="geometry" />
        </mxCell>
        <mxCell id="Y-KBNdAY24uzlhyVxi8V-6" value="" style="ellipse;whiteSpace=wrap;html=1;aspect=fixed;fillColor=none;strokeColor=#82b366;" parent="1" vertex="1">
          <mxGeometry x="290" y="120" width="110" height="110" as="geometry" />
        </mxCell>
        <mxCell id="Y-KBNdAY24uzlhyVxi8V-7" value="" style="ellipse;whiteSpace=wrap;html=1;aspect=fixed;fillColor=none;strokeColor=#9673a6;" parent="1" vertex="1">
          <mxGeometry x="486" y="142" width="40" height="40" as="geometry" />
        </mxCell>
        <mxCell id="Y-KBNdAY24uzlhyVxi8V-8" value="" style="ellipse;whiteSpace=wrap;html=1;aspect=fixed;fillColor=none;strokeColor=#9673a6;" parent="1" vertex="1">
          <mxGeometry x="461" y="182" width="40" height="40" as="geometry" />
        </mxCell>
        <mxCell id="Y-KBNdAY24uzlhyVxi8V-10" value="Éditeur de code" style="text;strokeColor=none;align=center;fillColor=none;html=1;verticalAlign=middle;whiteSpace=wrap;rounded=0;" parent="1" vertex="1">
          <mxGeometry x="310" y="160" width="70" height="30" as="geometry" />
        </mxCell>
        <mxCell id="Y-KBNdAY24uzlhyVxi8V-11" value="" style="endArrow=none;html=1;rounded=0;entryX=0;entryY=0;entryDx=0;entryDy=0;" parent="1" target="Y-KBNdAY24uzlhyVxi8V-5" edge="1">
          <mxGeometry width="50" height="50" relative="1" as="geometry">
            <mxPoint x="394" y="97" as="sourcePoint" />
            <mxPoint x="316" y="146" as="targetPoint" />
          </mxGeometry>
        </mxCell>
        <mxCell id="Y-KBNdAY24uzlhyVxi8V-12" value="Compilateur" style="text;strokeColor=none;align=center;fillColor=none;html=1;verticalAlign=middle;whiteSpace=wrap;rounded=0;" parent="1" vertex="1">
          <mxGeometry x="360" y="70" width="60" height="30" as="geometry" />
        </mxCell>
        <mxCell id="Y-KBNdAY24uzlhyVxi8V-13" value="" style="endArrow=none;html=1;rounded=0;entryX=1;entryY=0;entryDx=0;entryDy=0;exitX=0;exitY=0.5;exitDx=0;exitDy=0;" parent="1" target="Y-KBNdAY24uzlhyVxi8V-7" edge="1" source="Y-KBNdAY24uzlhyVxi8V-17">
          <mxGeometry width="50" height="50" relative="1" as="geometry">
            <mxPoint x="580" y="100" as="sourcePoint" />
            <mxPoint x="420" y="300" as="targetPoint" />
          </mxGeometry>
        </mxCell>
        <mxCell id="Y-KBNdAY24uzlhyVxi8V-14" value="" style="endArrow=none;html=1;rounded=0;entryX=1;entryY=1;entryDx=0;entryDy=0;exitX=0;exitY=0.5;exitDx=0;exitDy=0;" parent="1" target="Y-KBNdAY24uzlhyVxi8V-8" edge="1" source="Y-KBNdAY24uzlhyVxi8V-18">
          <mxGeometry width="50" height="50" relative="1" as="geometry">
            <mxPoint x="570" y="290" as="sourcePoint" />
            <mxPoint x="420" y="300" as="targetPoint" />
          </mxGeometry>
        </mxCell>
        <mxCell id="Y-KBNdAY24uzlhyVxi8V-15" value="" style="endArrow=none;html=1;rounded=0;entryX=0.698;entryY=0.027;entryDx=0;entryDy=0;exitX=0;exitY=0.5;exitDx=0;exitDy=0;entryPerimeter=0;" parent="1" source="Y-KBNdAY24uzlhyVxi8V-16" target="Y-KBNdAY24uzlhyVxi8V-4" edge="1">
          <mxGeometry width="50" height="50" relative="1" as="geometry">
            <mxPoint x="520" y="-10" as="sourcePoint" />
            <mxPoint x="420" y="300" as="targetPoint" />
          </mxGeometry>
        </mxCell>
        <mxCell id="Y-KBNdAY24uzlhyVxi8V-16" value="Toolchain" style="text;strokeColor=none;align=left;fillColor=none;html=1;verticalAlign=middle;whiteSpace=wrap;rounded=0;spacingLeft=4;" parent="1" vertex="1">
          <mxGeometry x="600" y="30" width="80" height="30" as="geometry" />
        </mxCell>
        <mxCell id="Y-KBNdAY24uzlhyVxi8V-17" value="Débogueur" style="text;strokeColor=none;align=left;fillColor=none;html=1;verticalAlign=middle;whiteSpace=wrap;rounded=0;spacingLeft=4;" parent="1" vertex="1">
          <mxGeometry x="600" y="80" width="80" height="30" as="geometry" />
        </mxCell>
        <mxCell id="Y-KBNdAY24uzlhyVxi8V-18" value="Bibliothèques" style="text;strokeColor=none;align=left;fillColor=none;html=1;verticalAlign=middle;whiteSpace=wrap;rounded=0;spacingLeft=4;" parent="1" vertex="1">
          <mxGeometry x="600" y="240" width="90" height="30" as="geometry" />
        </mxCell>
        <mxCell id="Y-KBNdAY24uzlhyVxi8V-19" value="IDE" style="text;strokeColor=none;align=center;fillColor=none;html=1;verticalAlign=middle;whiteSpace=wrap;rounded=0;" parent="1" vertex="1">
          <mxGeometry x="380" y="240" width="60" height="30" as="geometry" />
        </mxCell>
      </root>
    </mxGraphModel>
  </diagram>
</mxfile>
